Patient4_TMGait_0pt5_02_left_18_EMG.mot
version=1
nRows=13
nColumns=33
inDegrees=no
endheader
time	1LAddLong	2LGlutMax	3LGlutMed	4LIliopsoas	5LSemiMemb	6LBicFemLong	7LRecFem	8LVastMed	9LVastLat	10LGasMed	11LTibAnt	12lTibPost	13LPeroneusLong	14LSol	15LExtDigLong	16LFlexDigLong	17RAddLong	18RGlutMax	19RGlutMed	20RIliopsoas	21RSemiMemb	22RBicFemLong	23RRecFem	24RVastMed	25RVastLat	26RGasMed	27RTibAnt	28RTibPost	29RPeroneusLong	30RSol	31RExtDigLong	32RFlexDigLong
23.195	0.017242	1.1234	-0.019073	-0.006409	0.001831	0.032043	-0.22415	0.003815	-0.059204	0.19165	0.014801	0.049896	0.056763	-0.20218	-0.021057	0.61005	0.033112	-0.06134	-0.076599	-0.062256	-0.04425	-0.030212	0.36224	0.009308	-0.011597	-0.00885	1.0175	-0.005188	0.03479	-0.18066	-0.018005	-0.006409
23.196	0.018005	1.1006	-0.013123	0.006256	-0.03952	0.048676	-0.19821	0.016632	0.003204	0.22781	0.016632	0.25146	0.018616	0.025482	-0.027313	-0.1622	0.031281	-0.13092	-0.024414	-0.077972	-0.036469	-0.014954	0.31113	-0.028534	-0.014954	-0.005951	0.46799	-0.002136	0.02655	-0.20783	-0.019531	0.000763
23.197	-0.001068	0.98557	0.064545	0.011444	-0.15533	0.1236	-0.16907	0.023346	-0.010986	0.27573	0.015411	0.23025	0.094147	0.11414	-0.005035	0.20554	0.01297	-0.21469	-0.007477	-0.079803	-0.026398	-0.003967	0.35599	-0.046082	-0.04364	-0.001068	-0.067902	-0.001984	-0.065308	-0.2446	-0.02182	-0.003052
23.198	-0.005493	0.89233	0.007019	0.023804	-0.21668	0.033875	-0.1741	0.041046	-0.016174	0.091095	0.00412	-0.00824	0.14297	0.14526	0.012054	0.23392	0.012817	-0.31433	-0.011292	-0.012512	-0.019989	-0.020599	0.38116	-0.068817	-0.028992	0.00412	-0.57693	-0.001984	-0.05188	-0.24643	-0.016022	-0.005493
23.199	-0.013733	0.7608	-0.016632	0.024109	-0.16083	-0.19608	-0.17563	0.03479	-0.005035	-0.13596	0.000763	-0.19989	0.007477	0.054626	0.005646	0.056	0.021515	-0.42282	-0.052338	-0.010986	-0.047455	-0.018768	0.3447	-0.086517	-0.043945	0.010986	-0.45242	-0.006256	0.099945	-0.29282	-0.018158	0.000916
23.2	-0.005646	0.72983	-0.036469	0.008545	0.022278	-0.096436	-0.24933	0.017395	0.029297	-0.19058	0.004578	0.33157	-0.091095	-0.079346	-0.0177	-0.055695	0.019989	-0.46143	-0.070801	-0.00412	-0.065613	-0.003052	0.32974	-0.059662	-0.007324	0.014038	-0.039673	-0.002136	0.14877	-0.21957	-0.020599	-0.001678
23.201	0.007477	0.85632	0.11475	0.003052	0.17288	0.020752	-0.38864	-0.001831	-0.003967	0.034637	0.005341	0.06897	-0.15503	0.15945	-0.030975	-0.066223	0.01358	-0.49118	-0.067444	0.068665	-0.092468	0.001984	0.30502	-0.061798	0.011597	0.00351	-0.059967	-0.006409	0.02533	-0.070038	-0.019531	-0.011139
23.202	-0.003815	0.89386	0.09552	-0.007935	0.13886	0.073242	-0.47592	-0.007019	0.007019	0.022125	0.000763	-0.17487	-0.086517	0.12665	-0.048523	-0.084534	0.039825	-0.56274	-0.061188	0.13825	-0.10315	0.063782	0.30487	-0.055389	0.003815	-0.001068	-0.11505	-0.003052	0.03006	0.016479	-0.018005	-0.004578
23.203	0.04425	0.78537	0.054626	-0.009766	0.088196	0.029907	-0.43823	-0.001984	-0.061188	-0.075073	0.019226	-0.023346	0.005341	-0.14084	-0.036316	-0.085754	0.041351	-0.5925	-0.12497	0.1828	-0.071106	0.098114	0.2832	-0.10483	0.012512	-0.009155	-0.30289	-0.011749	0.079346	0.11673	-0.0177	-0.013275
23.204	-0.010529	0.81833	0.076447	-0.016632	0.015106	-0.059967	-0.46555	-0.007935	-0.10712	0.013885	0.015564	-0.079498	0.11185	-0.1767	-0.002441	-0.082245	0.056305	-0.6604	-0.13306	0.1532	-0.052185	0.092163	0.24689	-0.093231	0.018616	-0.001526	-0.53314	-0.001984	0.21194	0.13657	-0.018616	-0.009766
23.205	0.014496	0.88303	0.099182	-0.008087	-0.01709	-0.15747	-0.40115	0.013733	-0.089417	0.087433	0.012207	0.016327	0.16419	-0.15869	0.032043	-0.091248	0.10376	-0.72845	-0.050507	-0.065155	-0.059357	0.065765	0.25818	-0.089111	0.009766	-0.001526	0.20035	-0.005341	0.19455	0.19623	-0.018005	-0.013123
23.206	0.028534	0.95123	-0.00412	0.000458	-0.043488	-0.091553	-0.38391	0.014343	-0.043488	0.23727	0.013733	-0.011902	0.12909	-0.20859	0.022125	-0.063629	0.12512	-0.78919	-0.13382	-0.13901	-0.064697	0.072784	0.26016	-0.088959	0.018616	-0.001526	0.551	-0.005493	0.20187	0.21591	-0.023804	0.001221
23.207	0.003052	1.0239	0.10895	0.035706	-0.056915	-0.08728	-0.33417	0.007935	0.06134	0.31494	0.008087	-0.059357	0.094452	-0.17929	0.014343	0.070038	0.10651	-0.81696	-0.10605	-0.13168	-0.032959	0.075836	0.22492	-0.14145	0.028992	-0.002899	0.55512	-0.005646	0.15533	0.21805	-0.022736	-0.001831
